HIERARCHY
ROOT joint_Root
{
	OFFSET 0.0 0.0 0.0
	CHANNELS 6 Xposition Yposition Zposition Zrotation Xrotation Yrotation 
	JOINT Hips
	{
		OFFSET 4.5925 91.4895 -427.239
		CHANNELS 6 Xposition Yposition Zposition Zrotation Xrotation Yrotation 
		JOINT Spine
		{
			OFFSET 15.7357 0.0 0.0
			CHANNELS 6 Xposition Yposition Zposition Zrotation Xrotation Yrotation 
			JOINT Chest
			{
				OFFSET 8.98455 -0.406207 0.0
				CHANNELS 6 Xposition Yposition Zposition Zrotation Xrotation Yrotation 
				JOINT Neck
				{
					OFFSET 16.3773 0.0 0.0
					CHANNELS 6 Xposition Yposition Zposition Zrotation Xrotation Yrotation 
					JOINT Head
					{
						OFFSET 6.45672 0.0 0.0
						CHANNELS 6 Xposition Yposition Zposition Zrotation Xrotation Yrotation 
						End Site
						{
							OFFSET 0.0 0.0 0.0
						}
					}
				}
				JOINT Shoulder_L
				{
					OFFSET 12.9942 -0.242716 4.98039
					CHANNELS 6 Xposition Yposition Zposition Zrotation Xrotation Yrotation 
					JOINT UpperArm_L
					{
						OFFSET 5.34809 0.0 0.0
						CHANNELS 6 Xposition Yposition Zposition Zrotation Xrotation Yrotation 
						JOINT LowerArm_L
						{
							OFFSET 24.3286 1.87007e-05 0.0
							CHANNELS 6 Xposition Yposition Zposition Zrotation Xrotation Yrotation 
							JOINT Hand_L
							{
								OFFSET 22.2916 0.0 0.0
								CHANNELS 6 Xposition Yposition Zposition Zrotation Xrotation Yrotation 
								End Site
								{
									OFFSET 0.0 0.0 0.0
								}
							}
						}
					}
				}
				JOINT Shoulder_R
				{
					OFFSET 12.9945 -0.242716 -4.98039
					CHANNELS 6 Xposition Yposition Zposition Zrotation Xrotation Yrotation 
					JOINT UpperArm_R
					{
						OFFSET -5.34813 0.0 0.0
						CHANNELS 6 Xposition Yposition Zposition Zrotation Xrotation Yrotation 
						JOINT LowerArm_R
						{
							OFFSET -24.3289 0.000322201 0.0
							CHANNELS 6 Xposition Yposition Zposition Zrotation Xrotation Yrotation 
							JOINT Hand_R
							{
								OFFSET -22.2915 -0.000108084 0.0
								CHANNELS 6 Xposition Yposition Zposition Zrotation Xrotation Yrotation 
								End Site
								{
									OFFSET 0.0 0.0 0.0
								}
							}
						}
					}
				}
			}
		}
		JOINT UpperLeg_L
		{
			OFFSET -2.19248 -6.46944 0.0
			CHANNELS 6 Xposition Yposition Zposition Zrotation Xrotation Yrotation 
			JOINT LowerLeg_L
			{
				OFFSET 39.0811 0.0 -1.23785e-05
				CHANNELS 6 Xposition Yposition Zposition Zrotation Xrotation Yrotation 
				JOINT Foot_L
				{
					OFFSET 40.9854 0.0 -1.26872e-05
					CHANNELS 6 Xposition Yposition Zposition Zrotation Xrotation Yrotation 
					JOINT Toes_L
					{
						OFFSET 11.7543 0.0 0.0
						CHANNELS 6 Xposition Yposition Zposition Zrotation Xrotation Yrotation 
						End Site
						{
							OFFSET 0.0 0.0 0.0
						}
					}
				}
			}
		}
		JOINT UpperLeg_R
		{
			OFFSET -2.19251 6.46944 0.0
			CHANNELS 6 Xposition Yposition Zposition Zrotation Xrotation Yrotation 
			JOINT LowerLeg_R
			{
				OFFSET -39.0811 -0.00228153 -0.0401928
				CHANNELS 6 Xposition Yposition Zposition Zrotation Xrotation Yrotation 
				JOINT Foot_R
				{
					OFFSET -40.9854 0.0 0.0
					CHANNELS 6 Xposition Yposition Zposition Zrotation Xrotation Yrotation 
					JOINT Toes_R
					{
						OFFSET -11.7543 0.0 0.0
						CHANNELS 6 Xposition Yposition Zposition Zrotation Xrotation Yrotation 
						End Site
						{
							OFFSET 0.0 0.0 0.0
						}
					}
				}
			}
		}
	}
}
MOTION
Frames:	9
Frame Time:	0.0333333
0.000000 0.000000 0.000000 0.000000 0.000000 -0.000000 1.370540 91.506700 -0.560224 88.660200 -2.998350 4.706940 15.735700 0.000005 -0.000001 89.849800 87.598900 -89.683600 8.984550 -0.406207 -0.000000 -2.963810 -0.028137 0.331774 16.377300 -0.000001 -0.000001 5.344860 -3.843500 2.295860 6.456720 -0.000001 -0.000000 2.096100 -4.181630 -0.388290 12.994200 -0.242716 4.980390 -85.253300 -9.644460 -63.635400 5.348090 -0.000007 -0.000001 -61.409400 -53.001400 -104.368000 24.328600 0.000019 0.000005 17.025000 12.487400 -54.772500 22.291600 -0.000001 0.000005 22.084000 5.241360 1.659910 12.994500 -0.242716 -4.980390 93.200500 -8.367980 -68.981700 -5.348130 -0.000001 -0.000004 -63.057800 -48.538400 -105.725000 -24.328900 0.000322 -0.000009 2.709480 1.889550 -55.146100 -22.291500 -0.000108 -0.000004 20.832300 5.477950 -5.670150 -2.192480 -6.469440 -0.000000 -176.518000 -10.201700 -4.041710 39.081100 -0.000007 -0.000012 -0.160102 0.305748 27.638600 40.985400 -0.000006 -0.000013 0.703133 3.062830 -69.001100 11.754300 -0.000000 0.000003 -0.000129 -0.001280 -16.626400 -2.192510 6.469440 -0.000001 174.991000 21.092700 177.772000 -39.081100 -0.002282 -0.040193 -0.024019 0.056634 25.760500 -40.985400 0.000008 0.000006 5.728920 17.468900 -69.487100 -11.754300 -0.000006 -0.000006 -0.002653 -0.036617 -18.062200
0.000000 0.000000 0.000000 0.000000 0.000000 -0.000000 1.381700 91.520500 -0.622689 88.639900 -3.086310 4.657000 15.735700 0.000005 -0.000001 90.453500 87.587100 -90.285500 8.984550 -0.406207 -0.000000 -2.940370 0.022489 0.336640 16.377300 -0.000001 -0.000001 5.246470 -3.853200 2.274500 6.456720 -0.000001 -0.000000 2.090050 -4.174390 -0.429524 12.994200 -0.242716 4.980390 -85.343500 -9.441500 -63.594500 5.348090 -0.000007 -0.000001 -60.731000 -53.007300 -103.317000 24.328600 0.000019 0.000005 16.610200 11.825700 -55.511200 22.291600 -0.000001 0.000005 22.100400 5.239200 1.716380 12.994500 -0.242716 -4.980390 93.125200 -8.164900 -68.970900 -5.348130 -0.000001 -0.000004 -62.156800 -48.668300 -104.854000 -24.328900 0.000322 -0.000009 2.135300 1.472170 -55.448200 -22.291500 -0.000108 -0.000004 20.571800 5.471790 -5.436910 -2.192480 -6.469440 -0.000000 -176.522000 -10.199000 -4.113210 39.081100 -0.000007 -0.000012 -0.159794 0.305643 27.601400 40.985400 -0.000006 -0.000013 0.684300 2.971490 -68.939800 11.754300 -0.000000 0.000003 -0.000128 -0.001269 -16.626000 -2.192510 6.469440 -0.000001 175.053000 21.096000 177.687000 -39.081100 -0.002282 -0.040193 -0.021193 0.050870 25.719900 -40.985400 0.000008 0.000006 5.875330 17.529900 -69.471000 -11.754300 -0.000006 -0.000006 -0.002436 -0.034046 -17.957600
0.000000 0.000000 0.000000 0.000000 0.000000 -0.000000 1.379530 91.524600 -0.652943 88.648400 -3.134200 4.642440 15.735700 0.000005 -0.000001 90.543100 87.557700 -90.386400 8.984550 -0.406207 -0.000000 -2.881710 0.031725 0.314341 16.377300 -0.000001 -0.000001 5.025480 -3.870900 2.249610 6.456720 -0.000001 -0.000000 2.200560 -4.199750 -0.403456 12.994200 -0.242716 4.980390 -85.502900 -9.128190 -63.629400 5.348090 -0.000007 -0.000001 -60.090100 -52.887500 -101.629000 24.328600 0.000019 0.000005 16.418000 10.778900 -57.597400 22.291600 -0.000001 0.000005 22.158700 5.230330 1.946750 12.994500 -0.242716 -4.980390 92.988800 -7.825830 -69.020500 -5.348130 -0.000001 -0.000004 -60.644200 -48.920500 -103.047000 -24.328900 0.000322 -0.000009 1.779850 1.167030 -56.779200 -22.291500 -0.000108 -0.000004 20.214200 5.458990 -4.963300 -2.192480 -6.469440 -0.000000 -176.515000 -10.363800 -4.126830 39.081100 -0.000007 -0.000012 -0.157552 0.301602 27.582100 40.985400 -0.000006 -0.000013 0.722367 3.106000 -68.918400 11.754300 -0.000000 0.000003 -0.000139 -0.001363 -16.629400 -2.192510 6.469440 -0.000001 175.028000 21.169500 177.658000 -39.081100 -0.002282 -0.040193 -0.024943 0.058717 25.695700 -40.985400 0.000008 0.000006 5.746110 17.664800 -69.390500 -11.754300 -0.000006 -0.000006 -0.002799 -0.038310 -18.131100
0.000000 0.000000 0.000000 0.000000 0.000000 -0.000000 1.393140 91.545500 -0.696065 88.733100 -3.135080 4.614440 15.735700 0.000005 -0.000001 90.582700 87.519000 -90.455900 8.984550 -0.406207 -0.000000 -2.804270 0.038745 0.254590 16.377300 -0.000001 -0.000001 4.753590 -3.955940 2.285230 6.456720 -0.000001 -0.000000 2.199600 -4.261310 -0.468438 12.994200 -0.242716 4.980390 -85.762000 -8.683770 -63.857700 5.348090 -0.000007 -0.000001 -59.359700 -52.614000 -98.758500 24.328600 0.000019 0.000005 16.445400 9.174820 -61.624700 22.291600 -0.000001 0.000005 22.315700 5.215870 2.318200 12.994500 -0.242716 -4.980390 92.790400 -7.319590 -69.064500 -5.348130 -0.000001 -0.000004 -58.693000 -49.069000 -100.156000 -24.328900 0.000322 -0.000009 1.439280 0.840778 -59.744900 -22.291500 -0.000108 -0.000004 19.798000 5.443750 -4.417190 -2.192480 -6.469440 -0.000000 -176.590000 -10.586000 -4.110350 39.081100 -0.000007 -0.000012 -0.152466 0.293809 27.426300 40.985400 -0.000006 -0.000013 0.779788 3.296300 -68.810500 11.754300 -0.000000 0.000003 -0.000134 -0.001322 -16.628000 -2.192510 6.469440 -0.000001 174.958000 21.216200 177.608000 -39.081100 -0.002282 -0.040193 -0.023447 0.055708 25.656000 -40.985400 0.000008 0.000006 5.777980 17.704000 -69.347700 -11.754300 -0.000006 -0.000006 -0.002565 -0.035576 -18.019800
0.000000 0.000000 0.000000 0.000000 0.000000 -0.000000 1.388480 91.556300 -0.736292 88.793900 -3.105100 4.575740 15.735700 0.000005 -0.000001 90.585300 87.465900 -90.492300 8.984550 -0.406207 -0.000000 -2.698070 0.043268 0.186868 16.377300 -0.000001 -0.000001 4.382800 -4.067740 2.329020 6.456720 -0.000001 -0.000000 2.107490 -4.340280 -0.431397 12.994200 -0.242716 4.980390 -86.106200 -8.094080 -64.200100 5.348090 -0.000007 -0.000001 -58.112700 -52.141700 -94.501100 24.328600 0.000019 0.000005 15.950600 6.883680 -67.252700 22.291600 -0.000001 0.000005 22.463300 5.206800 2.548030 12.994500 -0.242716 -4.980390 92.543000 -6.663730 -69.056300 -5.348130 -0.000001 -0.000004 -56.399100 -48.783700 -95.838700 -24.328900 0.000322 -0.000009 0.754471 0.357840 -64.702300 -22.291500 -0.000108 -0.000004 19.518000 5.425460 -3.784070 -2.192480 -6.469440 -0.000000 -176.636000 -10.698500 -4.146030 39.081100 -0.000007 -0.000012 -0.152039 0.293986 27.346600 40.985400 -0.000006 -0.000013 0.807198 3.435740 -68.736400 11.754300 -0.000000 0.000003 -0.000133 -0.001315 -16.627700 -2.192510 6.469440 -0.000001 174.923000 21.214500 177.533000 -39.081100 -0.002282 -0.040193 -0.025569 0.060156 25.644900 -40.985400 0.000008 0.000006 5.693980 17.701200 -69.281300 -11.754300 -0.000006 -0.000006 -0.002404 -0.033659 -17.941800
0.000000 0.000000 0.000000 0.000000 0.000000 -0.000000 1.367810 91.562200 -0.791608 88.857500 -2.997970 4.533930 15.735700 0.000005 -0.000001 89.682500 87.397000 -89.627300 8.984550 -0.406207 -0.000000 -2.560090 -0.033810 0.109798 16.377300 -0.000001 -0.000001 3.898160 -4.159380 2.319760 6.456720 -0.000001 -0.000000 2.031970 -4.395800 -0.329991 12.994200 -0.242716 4.980390 -86.496100 -7.456390 -64.740700 5.348090 -0.000007 -0.000001 -56.055100 -51.496000 -88.369600 24.328600 0.000019 0.000005 15.458200 4.419180 -74.432600 22.291600 -0.000001 0.000005 22.466600 5.196600 2.804590 12.994500 -0.242716 -4.980390 92.216600 -5.846630 -69.195000 -5.348130 -0.000001 -0.000004 -53.589100 -47.985600 -90.074000 -24.328900 0.000322 -0.000009 -0.016575 -0.004484 -71.204900 -22.291500 -0.000108 -0.000004 19.517400 5.418210 -3.538910 -2.192480 -6.469440 -0.000000 -176.667000 -10.867600 -4.222640 39.081100 -0.000007 -0.000012 -0.148113 0.286892 27.306000 40.985400 -0.000006 -0.000013 0.865360 3.720460 -68.665600 11.754300 -0.000000 0.000003 -0.000127 -0.001263 -16.625800 -2.192510 6.469440 -0.000001 174.855000 21.364600 177.465000 -39.081100 -0.002282 -0.040193 -0.033465 0.076585 25.650200 -40.985400 0.000008 0.000006 5.573770 17.810100 -69.217600 -11.754300 -0.000006 -0.000006 -0.002597 -0.035957 -18.035300
0.000000 0.000000 0.000000 0.000000 0.000000 -0.000000 1.342040 91.565200 -0.853025 88.917600 -2.969980 4.535440 15.735700 0.000005 -0.000001 88.596700 87.308300 -88.576800 8.984550 -0.406207 -0.000000 -2.384200 -0.133562 0.036938 16.377300 -0.000001 -0.000001 3.520580 -4.261110 2.435980 6.456720 -0.000001 -0.000000 1.846810 -4.174780 -0.426492 12.994200 -0.242716 4.980390 -86.887300 -6.820380 -65.396800 5.348090 -0.000007 -0.000001 -53.201100 -50.212500 -80.210100 24.328600 0.000019 0.000005 15.402600 1.972880 -82.879800 22.291600 -0.000001 0.000005 22.451100 5.185640 3.076640 12.994500 -0.242716 -4.980390 91.853000 -4.993190 -69.609700 -5.348130 -0.000001 -0.000004 -50.380800 -46.297800 -82.819600 -24.328900 0.000322 -0.000009 -0.522257 -0.099913 -79.032900 -22.291500 -0.000108 -0.000004 19.866300 5.413460 -3.380540 -2.192480 -6.469440 -0.000000 -176.677000 -11.083500 -4.245030 39.081100 -0.000007 -0.000012 -0.149005 0.288992 27.275900 40.985400 -0.000006 -0.000013 0.901672 3.944970 -68.608800 11.754300 -0.000000 0.000003 -0.000130 -0.001287 -16.626600 -2.192510 6.469440 -0.000001 174.785000 21.490500 177.412000 -39.081100 -0.002282 -0.040193 -0.040948 0.092051 25.678300 -40.985400 0.000008 0.000006 5.417870 17.930700 -69.135000 -11.754300 -0.000006 -0.000006 -0.002519 -0.035033 -17.997700
0.000000 0.000000 0.000000 0.000000 0.000000 -0.000000 1.325870 91.584100 -0.932855 88.959500 -3.108780 4.463920 15.735700 0.000005 -0.000001 88.395300 87.214500 -88.423200 8.984550 -0.406207 -0.000000 -2.197330 -0.153541 -0.058795 16.377300 -0.000001 -0.000001 2.948370 -4.383170 2.692930 6.456720 -0.000001 -0.000000 1.710660 -3.837150 -0.498712 12.994200 -0.242716 4.980390 -87.383700 -5.850500 -65.854300 5.348090 -0.000007 -0.000001 -49.104200 -47.734700 -70.747400 24.328600 0.000019 0.000005 14.993100 -0.321388 -91.200800 22.291600 -0.000001 0.000005 22.885900 5.185130 3.089280 12.994500 -0.242716 -4.980390 91.432100 -4.006710 -70.314900 -5.348130 -0.000001 -0.000004 -46.558700 -43.709100 -73.930800 -24.328900 0.000322 -0.000009 -1.440760 -0.055781 -87.749100 -22.291500 -0.000108 -0.000004 20.112700 5.402840 -3.030280 -2.192480 -6.469440 -0.000000 -176.708000 -11.297800 -4.310470 39.081100 -0.000007 -0.000012 -0.145958 0.284365 27.170500 40.985400 -0.000006 -0.000013 0.910545 4.024240 -68.503200 11.754300 -0.000000 0.000003 -0.000129 -0.001275 -16.626200 -2.192510 6.469440 -0.000001 174.828000 21.380400 177.260000 -39.081100 -0.002282 -0.040193 -0.040453 0.091126 25.652800 -40.985400 0.000008 0.000006 5.468630 17.953100 -69.072900 -11.754300 -0.000006 -0.000006 -0.002585 -0.035811 -18.029400
0.000000 0.000000 0.000000 0.000000 0.000000 -0.000000 1.303570 91.586100 -1.016900 88.958900 -3.280570 4.454430 15.735700 0.000005 -0.000001 88.194400 87.098100 -88.243800 8.984550 -0.406207 -0.000000 -1.965140 -0.178637 -0.101828 16.377300 -0.000001 -0.000001 2.384980 -4.334600 2.856270 6.456720 -0.000001 -0.000000 1.519260 -3.602370 -0.371494 12.994200 -0.242716 4.980390 -87.972700 -4.587900 -66.129400 5.348090 -0.000007 -0.000001 -44.655200 -43.219900 -60.737600 24.328600 0.000019 0.000005 14.666300 -2.297360 -98.706900 22.291600 -0.000001 0.000005 23.551400 5.199780 2.725880 12.994500 -0.242716 -4.980390 90.918100 -2.723050 -71.363400 -5.348130 -0.000001 -0.000004 -42.233400 -39.868700 -64.053900 -24.328900 0.000322 -0.000009 -2.015660 0.220999 -96.242400 -22.291500 -0.000108 -0.000004 19.792700 5.394530 -2.760250 -2.192480 -6.469440 -0.000000 -176.668000 -11.596200 -4.363680 39.081100 -0.000007 -0.000012 -0.143126 0.278600 27.191200 40.985400 -0.000006 -0.000013 0.931742 4.152080 -68.466800 11.754300 -0.000000 0.000003 -0.000144 -0.001404 -16.631000 -2.192510 6.469440 -0.000001 174.837000 21.415300 177.159000 -39.081100 -0.002282 -0.040193 -0.049589 0.110072 25.668600 -40.985400 0.000008 0.000006 5.354180 18.177400 -68.968300 -11.754300 -0.000006 -0.000006 -0.002515 -0.034988 -17.995900
